<svg width="346" height="91" viewBox="0 0 346 91" fill="none" xmlns="http://www.w3.org/2000/svg">
<path d="M127.815 78.5537L123.271 67.8997H119.212V86.4324H123.09V79.0797L122.673 75.4873H122.933L123.823 78.0277L126.416 84.0039H129.314L131.873 78.0613L132.775 75.4649H133.057L132.584 79.0573V86.4324H136.462V67.8997H132.403L127.815 78.5537Z" fill="#041E42"/>
<path d="M140.736 86.4322H153.398V82.6944H144.637V79.0236H152.676V75.2858H144.637V71.6374H153.398V67.866H140.736V86.4322Z" fill="#041E42"/>
<path d="M156.42 71.5591H161.719V86.4322H165.631V71.5591H170.953V67.866H156.42V71.5591Z" fill="#041E42"/>
<path d="M177.561 67.8997L171.01 86.4324H175.159L176.715 82.1909H182.285L183.92 86.4324H187.978L181.281 67.8997H177.561ZM177.685 78.6544L178.744 74.648L179.319 71.9845H179.511L180.086 74.6256L181.281 78.6544H177.685Z" fill="#041E42"/>
<path d="M194.372 74.2899C194.034 79.2364 194.113 82.9519 190.392 82.8176V86.4324C196.221 86.8352 197.743 82.3811 198.07 77.3003L198.408 71.5592H202.918V86.4324H206.819V67.8997H194.8L194.372 74.2899Z" fill="#041E42"/>
<path d="M214.171 74.2899C213.821 79.2364 213.9 82.9519 210.18 82.8176V86.4324C216.009 86.8352 217.542 82.3811 217.858 77.3003L218.207 71.5592H222.717V86.4324H226.618V67.8997H214.588L214.171 74.2899Z" fill="#041E42"/>
<path d="M239.958 86.4324H243.836V71.5592H250.545V86.4324H254.457V67.8997H239.958V86.4324Z" fill="#041E42"/>
<path d="M265.901 67.6311C262.079 67.6311 258.279 69.6791 258.279 73.8199V80.5346C258.279 84.6418 262.102 86.7122 265.935 86.7122C269.768 86.7122 273.557 84.6418 273.557 80.5346V73.8199C273.512 69.7015 269.735 67.6311 265.901 67.6311ZM269.701 80.5234C269.701 82.2245 267.807 83.0862 265.935 83.0862C264.063 83.0862 262.135 82.2469 262.135 80.5234V73.8087C262.135 72.0517 264.007 71.1899 265.879 71.1899C267.75 71.1899 269.701 71.9957 269.701 73.8087V80.5234Z" fill="#041E42"/>
<path d="M284.02 82.9853C282.385 82.9853 280.908 82.0677 280.908 80.5457V73.8309C280.908 72.2865 282.442 71.3688 284.099 71.3464C284.838 71.3066 285.573 71.4719 286.222 71.8238C286.872 72.1757 287.409 72.7002 287.775 73.3385L290.887 71.6598C290.299 70.4509 289.375 69.4339 288.225 68.7281C287.074 68.0223 285.745 67.6572 284.392 67.6757C280.694 67.6757 277.052 69.7685 277.052 73.8309V80.5457C277.052 84.6305 280.773 86.7008 284.392 86.7008C285.743 86.6729 287.064 86.3012 288.229 85.6212C289.394 84.9413 290.363 83.9759 291.044 82.8175L287.662 80.9597C287.303 81.599 286.773 82.1268 286.13 82.4845C285.487 82.8422 284.757 83.0155 284.02 82.9853Z" fill="#041E42"/>
<path d="M301.621 73.4169L300.482 76.2259H300.381L299.355 73.5512L296.739 67.8997H292.33L298.509 80.4674L295.758 86.4324H299.93L308.374 67.8997H304.101L301.621 73.4169Z" fill="#041E42"/>
<path d="M324.644 67.8997H312.975L312.524 74.2899C312.186 79.5721 312.287 82.7505 309.141 82.9295H308.871V90.0024H312.806V86.4324H322.513V90.0024H326.414V82.9295H324.644V67.8997ZM320.766 82.9295H315.016C315.72 81.1447 316.102 79.2504 316.143 77.3339L316.538 71.5928H320.754L320.766 82.9295Z" fill="#041E42"/>
<path d="M335.582 67.8997L329.042 86.4324H333.191L334.736 82.1909H340.306L341.941 86.4324H345.999L339.302 67.8997H335.582ZM335.717 78.6544L336.765 74.648L337.352 71.9845H337.532L338.118 74.6256L339.302 78.6544H335.717Z" fill="#041E42"/>
<path d="M134.929 59.2261H119.144V0.0336643H134.929V22.4169H152.801V0.0336643H168.586V59.2261H152.801V36.91H134.929V59.2261ZM276.387 27.7105C279.473 29.0411 282.016 31.3657 283.605 34.3084C285.195 37.2511 285.739 40.6399 285.148 43.9272C283.57 53.4624 276.827 59.2261 263.071 59.2261H237.747V0.0336643H262.632C274.459 0.0336643 283.13 6.80459 282.78 18.0969C282.624 20.1061 281.955 22.0429 280.837 23.7247C279.718 25.4066 278.187 26.7782 276.387 27.7105ZM262.632 23.2339C270.254 23.2339 270.524 12.7026 262.632 12.7026H253.521V23.2339H262.632ZM262.632 46.1431C272.091 46.1431 271.922 34.0226 262.632 34.0226H253.521V46.1431H262.632ZM345.774 59.2708H328.952L324.927 47.3966H308.364L304.507 59.2708H287.685L309.333 0.0784233H323.607L345.774 59.2708ZM321.15 34.0562L316.865 16.7539H316.425L311.915 34.0562H321.15ZM224.646 45.0687H196.165V36.8876H216.009C217.259 36.8938 218.482 36.5254 219.518 35.8306C220.554 35.1357 221.355 34.1467 221.816 32.993L225.198 24.3307C225.25 24.1903 225.266 24.0396 225.245 23.8917C225.225 23.7437 225.168 23.603 225.08 23.4817C224.992 23.3604 224.876 23.2622 224.742 23.1956C224.607 23.129 224.458 23.096 224.307 23.0996H196.12V14.1463H215.75C217.034 14.1561 218.291 13.7797 219.356 13.0665C220.421 12.3533 221.243 11.3368 221.714 10.1509L225.153 1.26475C225.206 1.12162 225.223 0.967807 225.203 0.816613C225.183 0.665418 225.126 0.521372 225.037 0.396893C224.948 0.272415 224.83 0.171239 224.694 0.102109C224.557 0.0329794 224.405 -0.00202931 224.251 9.08723e-05H180.515V0.291067V58.7896H216.381C217.632 58.7989 218.857 58.4317 219.893 57.7365C220.93 57.0412 221.73 56.0505 222.188 54.8949L225.57 46.2326C225.612 46.0934 225.619 45.9462 225.592 45.8035C225.564 45.6608 225.503 45.5267 225.412 45.4126C225.321 45.2985 225.205 45.2077 225.071 45.1479C224.938 45.088 224.792 45.0609 224.646 45.0687Z" fill="#041E42"/>
<path d="M107.599 2.52944L107.61 2.29441V2.05939L107.576 1.82437L107.52 1.60053L107.441 1.3767L107.351 1.16406L107.227 0.973804L107.091 0.794738L106.945 0.638055L106.787 0.492564L106.606 0.380648L106.415 0.291115L106.223 0.223966L106.02 0.190391L105.817 0.179199H1.79275L1.58979 0.190391L1.38684 0.223966L1.19516 0.291115L1.01476 0.380648L0.83436 0.492564L0.676508 0.638055L0.518656 0.794738L0.383354 0.973804L0.270603 1.16406L0.169127 1.3767L0.101476 1.60053L0.0451005 1.82437L0.0112751 2.05939L0 2.29441L0.0112751 2.52944L0.0563757 2.76446L0.112751 2.99949L4.4875 17.1009L4.6679 17.6269L4.85958 18.1529L5.08508 18.6565L5.32186 19.1602L5.56992 19.6414L5.85179 20.1227L6.14495 20.5815L6.44938 21.018L6.77635 21.4433L7.11461 21.8462L7.47541 22.2379L7.84749 22.6072L8.23085 22.9541L8.62548 23.2787L9.04266 23.5809L9.45984 23.8606L9.89957 24.1292L10.3393 24.3643L10.7903 24.5769L11.2526 24.7672L11.7149 24.935L12.1884 25.0805L12.662 25.1925L13.1468 25.282L13.6316 25.3491L14.1165 25.3827L14.6013 25.3939H93.0086L93.5047 25.3827L93.9895 25.3491L94.4743 25.282L94.9479 25.1925L95.4327 25.0805L95.9063 24.935L96.3686 24.7672L96.8196 24.5769L97.2818 24.3643L97.7216 24.1292L98.15 23.8606L98.5785 23.5809L98.9844 23.2787L99.379 22.9541L99.7736 22.6072L100.146 22.2379L100.495 21.8462L100.845 21.4433L101.172 21.018L101.476 20.5815L101.769 20.1227L102.04 19.6414L102.299 19.1602L102.536 18.6565L102.75 18.1529L102.953 17.6269L103.122 17.1009L107.599 2.52944Z" fill="url(#paint0_linear_2_6436)"/>
<path d="M107.599 33.0714L107.61 32.8364V32.6013L107.576 32.3663L107.52 32.1425L107.441 31.9187L107.351 31.706L107.227 31.5158L107.091 31.3367L106.945 31.18L106.787 31.0345L106.606 30.9226L106.415 30.8331L106.223 30.7659L106.02 30.7212L105.817 30.71H1.79275L1.58979 30.7212L1.38684 30.7659L1.19516 30.8331L1.01476 30.9226L0.83436 31.0345L0.676508 31.18L0.518656 31.3367L0.383354 31.5158L0.270603 31.706L0.169127 31.9187L0.101476 32.1425L0.0451005 32.3663L0.0112751 32.6013L0 32.8364L0.0112751 33.0714L0.0563757 33.3064L0.112751 33.5302L4.4875 47.6317L4.6679 48.1689L4.85958 48.6949L5.08508 49.2097L5.32186 49.7021L5.56992 50.1834L5.85179 50.6534L6.14495 51.1123L6.44938 51.5487L6.77635 51.9852L7.11461 52.3881L7.47541 52.7798L7.84749 53.1491L8.23085 53.4961L8.62548 53.8206L9.04266 54.1228L9.45984 54.4026L9.89957 54.6712L10.3393 54.9062L10.7903 55.1189L11.2526 55.3091L11.7149 55.477L12.1884 55.6113L12.662 55.7344L13.1468 55.8239L13.6316 55.8911L14.1165 55.9247L14.6013 55.9358H93.0086L93.5047 55.9247L93.9895 55.8911L94.4743 55.8239L94.9479 55.7344L95.4327 55.6113L95.9063 55.477L96.3686 55.3091L96.8196 55.1189L97.2818 54.9062L97.7216 54.6712L98.15 54.4026L98.5785 54.1228L98.9844 53.8206L99.379 53.4961L99.7736 53.1491L100.146 52.7798L100.495 52.3881L100.845 51.9852L101.172 51.5487L101.476 51.1123L101.769 50.6534L102.04 50.1834L102.299 49.7021L102.536 49.2097L102.75 48.6949L102.953 48.1689L103.122 47.6317L107.599 33.0714Z" fill="url(#paint1_linear_2_6436)"/>
<path d="M107.599 63.669L107.61 63.434V63.1878L107.576 62.964L107.52 62.729L107.441 62.5051L107.351 62.3037L107.227 62.1022L107.091 61.9343L106.945 61.7777L106.787 61.6322L106.606 61.5203L106.415 61.4195L106.223 61.3636L106.02 61.3188L105.817 61.3076H1.79275L1.58979 61.3188L1.38684 61.3636L1.19516 61.4195L1.01476 61.5203L0.83436 61.6322L0.676508 61.7777L0.518656 61.9343L0.383354 62.1022L0.270603 62.3037L0.169127 62.5051L0.101476 62.729L0.0451005 62.964L0.0112751 63.1878L0 63.434L0.0112751 63.669L0.0563757 63.9041L0.112751 64.1279L4.4875 78.2293L4.6679 78.7665L4.85958 79.2813L5.08508 79.7962L5.32186 80.2998L5.56992 80.781L5.85179 81.2511L6.14495 81.7099L6.44938 82.1464L6.77635 82.5717L7.11461 82.9746L7.47541 83.3663L7.84749 83.7356L8.23085 84.0825L8.62548 84.4071L9.04266 84.7205L9.45984 85.0003L9.89957 85.2577L10.3393 85.4927L10.7903 85.7165L11.2526 85.9068L11.7149 86.0747L12.1884 86.209L12.662 86.3209L13.1468 86.4104L13.6316 86.4775L14.1165 86.5223L14.6013 86.5335H93.0086L93.5047 86.5223L93.9895 86.4775L94.4743 86.4104L94.9479 86.3209L95.4327 86.209L95.9063 86.0747L96.3686 85.9068L96.8196 85.7165L97.2818 85.4927L97.7216 85.2577L98.15 85.0003L98.5785 84.7205L98.9844 84.4071L99.379 84.0825L99.7736 83.7356L100.146 83.3663L100.495 82.9746L100.845 82.5717L101.172 82.1464L101.476 81.7099L101.769 81.2511L102.04 80.781L102.299 80.2998L102.536 79.7962L102.75 79.2813L102.953 78.7665L103.122 78.2293L107.599 63.669Z" fill="url(#paint2_linear_2_6436)"/>
<defs>
<linearGradient id="paint0_linear_2_6436" x1="0" y1="12.781" x2="107.61" y2="12.781" gradientUnits="userSpaceOnUse">
<stop stop-color="#C02B38"/>
<stop offset="0.39" stop-color="#D73241"/>
<stop offset="0.73" stop-color="#E83747"/>
</linearGradient>
<linearGradient id="paint1_linear_2_6436" x1="23.4974" y1="68.6831" x2="83.6618" y2="8.06966" gradientUnits="userSpaceOnUse">
<stop stop-color="#BB2A36"/>
<stop offset="0.04" stop-color="#BF2B37"/>
<stop offset="0.31" stop-color="#DC2F41"/>
<stop offset="0.47" stop-color="#E73144"/>
<stop offset="1" stop-color="#E83747"/>
</linearGradient>
<linearGradient id="paint2_linear_2_6436" x1="36.3285" y1="99.2136" x2="67.2001" y2="40.7262" gradientUnits="userSpaceOnUse">
<stop stop-color="#B22833"/>
<stop offset="0.09" stop-color="#B72935"/>
<stop offset="0.34" stop-color="#C02B38"/>
<stop offset="0.37" stop-color="#C32B39"/>
<stop offset="0.72" stop-color="#DD2F41"/>
<stop offset="0.92" stop-color="#E73144"/>
</linearGradient>
</defs>
</svg>
