<svg width="360" height="77" viewBox="0 0 360 77" fill="none" xmlns="http://www.w3.org/2000/svg">
<g clip-path="url(#clip0_2_7236)">
<path d="M344.991 5.15288H345.557L346.662 6.90466H347.555L346.349 5.10224C346.502 5.10106 346.653 5.06885 346.794 5.00755C346.934 4.94624 347.06 4.85711 347.166 4.7455C347.271 4.63389 347.352 4.50211 347.405 4.35808C347.458 4.21405 347.482 4.06075 347.474 3.90738C347.474 3.13275 347.015 2.6467 346.102 2.6467H344.239V6.90466H344.991V5.15288ZM344.991 4.48962V3.3302H345.885C346.288 3.3302 346.717 3.36565 346.717 3.87194C346.717 4.49975 346.339 4.51494 345.809 4.51494L344.991 4.48962Z" fill="#E2001A"/>
<path d="M345.733 8.00786C345.092 8.00986 344.464 7.8208 343.93 7.46464C343.395 7.10847 342.978 6.60123 342.732 6.00718C342.485 5.41312 342.42 4.75899 342.544 4.12767C342.668 3.49634 342.977 2.91623 343.43 2.46084C343.883 2.00544 344.461 1.69526 345.09 1.56959C345.719 1.44393 346.372 1.50843 346.964 1.75492C347.557 2.00142 348.063 2.41881 348.419 2.95423C348.775 3.48964 348.964 4.11897 348.963 4.76249C348.964 5.18844 348.881 5.61034 348.719 6.00406C348.557 6.39777 348.319 6.75558 348.019 7.05701C347.719 7.35843 347.363 7.59757 346.97 7.76072C346.578 7.92388 346.158 8.00786 345.733 8.00786ZM345.733 0.767805C344.945 0.765801 344.174 0.998376 343.518 1.4361C342.862 1.87382 342.35 2.497 342.047 3.22676C341.744 3.95651 341.664 4.76003 341.816 5.53559C341.969 6.31115 342.347 7.02388 342.904 7.58356C343.46 8.14324 344.17 8.5247 344.942 8.67966C345.715 8.83462 346.516 8.75611 347.245 8.45406C347.973 8.15201 348.595 7.64001 349.033 6.98287C349.471 6.32573 349.705 5.553 349.705 4.76249C349.708 4.23801 349.607 3.71818 349.408 3.23298C349.21 2.74777 348.918 2.30678 348.548 1.93544C348.179 1.5641 347.74 1.26975 347.257 1.06935C346.774 0.868945 346.256 0.766462 345.733 0.767805Z" fill="#E2001A"/>
<path d="M357.882 76.6315C358.029 76.6322 358.176 76.6036 358.312 76.5474C358.449 76.4912 358.573 76.4085 358.677 76.3041C358.782 76.1996 358.865 76.0755 358.922 75.9388C358.978 75.8021 359.007 75.6555 359.007 75.5075V67.6295C359.005 67.3314 358.885 67.0463 358.674 66.8359C358.464 66.6255 358.179 66.5069 357.882 66.5055H347.459C345.032 66.5055 338.576 66.3891 335.049 64.6424C334.041 64.186 333.151 63.5055 332.444 62.6526C331.88 61.864 331.594 60.909 331.632 59.9389V2.01841C331.632 1.7189 331.514 1.43143 331.304 1.21822C331.095 1.00502 330.81 0.883235 330.511 0.879242H307.733C307.586 0.880566 307.439 0.911077 307.303 0.969043C307.167 1.02701 307.044 1.11129 306.94 1.21708C306.837 1.32286 306.755 1.44807 306.7 1.58557C306.644 1.72306 306.617 1.87014 306.618 2.01841V58.1314C306.618 61.0679 307.274 63.8272 308.566 65.7258C310.189 68.0983 312.345 70.0547 314.86 71.4369C323.475 76.1151 338.672 76.6669 344.588 76.6315H357.882Z" fill="#E2001A"/>
<path d="M53.0034 76.2876C53.3002 76.2876 53.585 76.17 53.7958 75.9605C54.0065 75.7509 54.1263 75.4663 54.129 75.1687V11.1422H81.7318C82.0295 11.1409 82.3148 11.0224 82.5263 10.8122C82.7377 10.602 82.8584 10.3169 82.8624 10.0183V2.17065C82.8584 1.87204 82.7377 1.58693 82.5263 1.37671C82.3148 1.16649 82.0295 1.04797 81.7318 1.04667H1.55279C1.40462 1.04465 1.25753 1.07227 1.12012 1.12791C0.982704 1.18356 0.857721 1.26611 0.752468 1.37075C0.647214 1.47539 0.563799 1.60002 0.507099 1.73736C0.450399 1.8747 0.42155 2.022 0.422234 2.17065V10.0183C0.422893 10.167 0.452825 10.3141 0.510314 10.4511C0.567804 10.5882 0.65172 10.7125 0.757239 10.8169C0.862757 10.9214 0.987802 11.0039 1.12519 11.0597C1.26258 11.1155 1.40961 11.1436 1.55784 11.1422H29.1102V75.1687C29.1096 75.3162 29.1381 75.4624 29.1943 75.5988C29.2504 75.7352 29.333 75.859 29.4372 75.9632C29.5415 76.0673 29.6653 76.1495 29.8015 76.2052C29.9377 76.2609 30.0836 76.2889 30.2307 76.2876H53.0034Z" fill="#E2001A"/>
<path d="M128.186 38.8115C128.219 39.777 127.935 40.7267 127.378 41.5151C126.679 42.3727 125.786 43.0512 124.774 43.4947C121.241 45.2415 114.796 45.3731 112.343 45.3731H92.4975V36.6141C92.4575 35.6484 92.736 34.6964 93.2899 33.9055C93.9961 33.0565 94.8894 32.384 95.8993 31.941C99.4323 30.1791 105.888 30.0627 108.33 30.0627H112.343C114.796 30.0627 121.226 30.1791 124.774 31.941C125.784 32.3812 126.676 33.0543 127.378 33.9055C127.931 34.6979 128.214 35.6477 128.186 36.6141V38.8115ZM152.851 76.2775C153.148 76.2762 153.432 76.1573 153.642 75.9468C153.852 75.7363 153.97 75.4512 153.972 75.1535V67.3312C153.971 67.0326 153.852 66.7464 153.643 66.5343C153.433 66.3222 153.149 66.2011 152.851 66.1971H108.361C105.918 66.1971 99.4676 66.0604 95.9195 64.3137C94.9095 63.8711 94.0174 63.1964 93.3152 62.3442C92.7621 61.5488 92.4822 60.5945 92.5177 59.6254V55.4788H115.23C121.135 55.4788 136.741 55.1801 145.341 50.9525C148.163 49.5652 150.272 48.016 151.66 46.1528C154.613 42.1885 154.875 34.2548 151.69 29.9766C150.287 28.1337 148.158 26.5439 145.371 25.1718C136.766 20.9392 121.145 20.6151 115.255 20.6151H105.489C99.5736 20.6151 83.983 21.086 75.3776 25.3035C72.8942 26.4933 70.7297 28.2602 69.0636 30.4576C67.7766 32.1537 67.1305 34.6396 67.1305 37.3179V59.6254C67.1305 62.2784 67.7766 64.7592 69.0636 66.4807C70.7314 68.6692 72.8938 70.4288 75.3725 71.6145C83.9779 75.832 99.5686 76.3231 105.484 76.2876L152.851 76.2775Z" fill="#E2001A"/>
<path d="M268.305 60.6986C268.338 61.6657 268.051 62.6167 267.487 63.4022C266.792 64.2623 265.903 64.9443 264.893 65.3919C261.36 67.1336 254.89 67.2653 252.457 67.2653H248.454C245.997 67.2653 239.561 67.1336 236.013 65.3919C234.999 64.9372 234.102 64.2568 233.389 63.4022C232.841 62.6101 232.561 61.6622 232.591 60.6986V58.1316C232.562 57.1634 232.842 56.211 233.389 55.4128C234.106 54.5658 235.003 53.8896 236.013 53.4332C239.546 51.6966 245.997 51.57 248.454 51.57H268.305V60.6986ZM291.729 30.827C290.047 28.6524 287.881 26.9029 285.405 25.7185C276.825 21.4808 261.204 20.9896 255.288 21.02H243.145H216.44C216.292 21.018 216.145 21.0454 216.007 21.1005C215.869 21.1557 215.743 21.2375 215.637 21.3414C215.53 21.4453 215.445 21.5692 215.387 21.7061C215.328 21.8429 215.297 21.99 215.295 22.1389V30.0119C215.299 30.3131 215.421 30.6005 215.636 30.8112C215.851 31.0218 216.14 31.1386 216.44 31.1359H252.427C254.859 31.1359 261.294 31.2624 264.848 33.0041C265.862 33.4509 266.758 34.1307 267.462 34.9888C268.027 35.7755 268.315 36.7285 268.28 37.6975V41.4643H245.568C239.662 41.4643 224.046 41.763 215.461 45.9906C212.65 47.3728 210.535 48.9474 209.142 50.8005C205.988 55.0382 205.978 63.1086 209.142 67.3463C210.53 69.2094 212.675 70.7688 215.456 72.1561C224.036 76.3887 239.642 76.6824 245.562 76.6824H255.303C261.219 76.6824 276.825 76.2419 285.42 71.9941C287.893 70.7995 290.057 69.0477 291.744 66.8754C293.011 65.154 293.672 62.6731 293.672 59.9999V37.7228C293.672 35.0495 293.011 32.5636 291.744 30.8473" fill="#E2001A"/>
<path d="M164.636 75.1678C164.636 75.315 164.664 75.4608 164.72 75.5968C164.776 75.7329 164.858 75.8565 164.962 75.9605C165.065 76.0646 165.189 76.1469 165.324 76.2029C165.46 76.2589 165.605 76.2874 165.752 76.2867H188.464C188.612 76.2881 188.758 76.2602 188.895 76.2047C189.033 76.1492 189.157 76.0671 189.263 75.9632C189.368 75.8593 189.452 75.7356 189.51 75.5991C189.568 75.4627 189.598 75.3161 189.6 75.1678V31.1199H203.51C203.809 31.1186 204.096 30.9987 204.308 30.7863C204.519 30.5739 204.639 30.2862 204.64 29.9858V22.1635C204.639 21.8631 204.519 21.5755 204.308 21.3631C204.096 21.1507 203.809 21.0308 203.51 21.0294H189.62V17.5511C189.575 16.5825 189.856 15.627 190.417 14.8374C191.115 13.9805 192.006 13.302 193.017 12.8578C196.575 11.111 203.434 10.9845 205.892 10.9845H215.865C216.014 10.9851 216.161 10.9563 216.298 10.8995C216.436 10.8427 216.561 10.7592 216.666 10.6538C216.771 10.5483 216.854 10.4231 216.911 10.2852C216.967 10.1473 216.996 9.99949 216.996 9.85036V2.01794C216.996 1.86858 216.967 1.72056 216.911 1.58238C216.854 1.44419 216.771 1.31857 216.666 1.21273C216.561 1.10688 216.436 1.02289 216.299 0.96558C216.161 0.908269 216.014 0.878767 215.865 0.878769H203.015C197.1 0.843328 181.494 1.38506 172.909 6.08857C170.381 7.44922 168.214 9.39703 166.59 11.7692C165.308 13.683 164.636 16.4272 164.636 20.0826V75.1678Z" fill="#E2001A"/>
</g>
<defs>
<clipPath id="clip0_2_7236">
<rect width="358.595" height="75.9143" fill="white" transform="translate(0.417219 0.768219)"/>
</clipPath>
</defs>
</svg>
